<?xml version="1.0" standalone="no"?>
<!DOCTYPE svg PUBLIC "-//W3C//DTD SVG 20010904//EN"
 "http://www.w3.org/TR/2001/REC-SVG-20010904/DTD/svg10.dtd">
<svg version="1.0" xmlns="http://www.w3.org/2000/svg"
 width="594.000000pt" height="594.000000pt" viewBox="0 0 594.000000 594.000000"
 preserveAspectRatio="xMidYMid meet">

<g transform="translate(0.000000,594.000000) scale(0.100000,-0.100000)"
fill="#000000" stroke="none">
<path d="M2856 5930 c-94 -15 -202 -48 -269 -81 -101 -51 -1878 -1078 -1929
-1115 -76 -56 -200 -195 -247 -278 -54 -95 -96 -216 -111 -321 -8 -57 -10
-405 -8 -1215 l3 -1135 28 -88 c54 -172 144 -318 264 -426 36 -33 123 -93 192
-134 229 -135 1755 -1014 1808 -1041 28 -14 91 -38 140 -53 79 -24 104 -26
243 -27 166 -1 228 10 353 61 81 33 1916 1093 1988 1149 176 135 304 355 339
580 7 47 10 436 8 1209 l-3 1140 -23 80 c-59 210 -192 400 -358 512 -90 61
-1860 1082 -1932 1115 -129 59 -348 89 -486 68z m313 -1476 c406 -59 770 -318
959 -683 105 -201 145 -367 145 -596 0 -207 -38 -369 -132 -571 -80 -171 -114
-209 -652 -749 l-509 -510 -514 515 c-557 558 -588 595 -668 781 -105 244
-138 476 -102 717 28 193 96 369 204 531 282 421 770 639 1269 565z"/>
<path d="M2810 3794 c-164 -42 -318 -167 -398 -320 -54 -105 -72 -183 -72
-316 0 -137 29 -234 101 -342 81 -121 190 -204 331 -252 90 -31 230 -42 320
-25 80 16 228 86 295 140 139 112 233 313 233 496 0 85 -28 202 -68 285 -28
57 -56 95 -122 160 -92 93 -180 145 -295 175 -75 19 -250 19 -325 -1z"/>
</g>
</svg>
